<svg xmlns="http://www.w3.org/2000/svg" xmlns:xlink="http://www.w3.org/1999/xlink" width="60" zoomAndPan="magnify" viewBox="0 0 45 44.999999" height="60" preserveAspectRatio="xMidYMid meet" version="1.0"><defs><clipPath id="ebf0d9ef98"><path d="M 2.507812 2.507812 L 42.257812 2.507812 L 42.257812 42.257812 L 2.507812 42.257812 Z M 2.507812 2.507812 " clip-rule="nonzero"/></clipPath></defs><rect x="-4.5" width="54" fill="#ffffff" y="-4.5" height="53.999999" fill-opacity="1"/><rect x="-4.5" width="54" fill="#ffffff" y="-4.5" height="53.999999" fill-opacity="1"/><g clip-path="url(#ebf0d9ef98)"><path fill="#ff5757" d="M 22.496094 2.507812 C 11.476562 2.507812 2.507812 11.476562 2.507812 22.496094 C 2.507812 33.515625 11.476562 42.480469 22.496094 42.480469 C 33.515625 42.480469 42.480469 33.515625 42.480469 22.496094 C 42.480469 11.476562 33.515625 2.507812 22.496094 2.507812 Z M 33.59375 37.039062 C 33.515625 36.914062 33.402344 36.808594 33.265625 36.738281 L 28.855469 34.535156 C 28.449219 34.289062 27.714844 32.507812 27.191406 30.546875 C 28.191406 30.121094 30.0625 29.277344 31.148438 28.507812 C 31.476562 28.273438 31.589844 27.84375 31.421875 27.480469 C 31.410156 27.449219 30.015625 24.339844 30.015625 18.914062 C 30.015625 12.449219 27.234375 9.167969 21.753906 9.167969 C 21.535156 9.167969 21.320312 9.257812 21.164062 9.410156 L 20.652344 9.925781 C 17.855469 10.148438 14.980469 12.980469 14.980469 18.914062 C 14.980469 24.339844 13.585938 27.449219 13.570312 27.476562 C 13.402344 27.84375 13.519531 28.273438 13.84375 28.503906 C 14.929688 29.277344 16.800781 30.121094 17.800781 30.546875 C 17.277344 32.503906 16.550781 34.28125 16.183594 34.507812 L 11.726562 36.734375 C 11.589844 36.804688 11.476562 36.90625 11.398438 37.03125 C 7.019531 33.679688 4.175781 28.417969 4.175781 22.492188 C 4.175781 12.390625 12.394531 4.171875 22.496094 4.171875 C 32.597656 4.171875 40.816406 12.390625 40.816406 22.492188 C 40.816406 28.421875 37.972656 33.6875 33.59375 37.039062 Z M 33.59375 37.039062 " fill-opacity="1" fill-rule="nonzero"/></g></svg>