<svg xmlns="http://www.w3.org/2000/svg" xmlns:xlink="http://www.w3.org/1999/xlink" width="60" zoomAndPan="magnify" viewBox="0 0 45 44.999999" height="60" preserveAspectRatio="xMidYMid meet" version="1.0"><defs><clipPath id="88896b2c93"><path d="M 2.25 2.25 L 42.75 2.25 L 42.75 42.75 L 2.25 42.75 Z M 2.25 2.25 " clip-rule="nonzero"/></clipPath></defs><rect x="-4.5" width="54" fill="#ffffff" y="-4.5" height="53.999999" fill-opacity="1"/><rect x="-4.5" width="54" fill="#ffffff" y="-4.5" height="53.999999" fill-opacity="1"/><g clip-path="url(#88896b2c93)"><path fill="#d9d9d9" d="M 22.5 2.25 C 11.332031 2.25 2.25 11.332031 2.25 22.5 C 2.25 33.667969 11.332031 42.75 22.5 42.75 C 22.703125 42.75 22.902344 42.726562 23.109375 42.71875 L 23.179688 42.734375 C 23.234375 42.742188 23.289062 42.75 23.34375 42.75 C 23.421875 42.75 23.5 42.738281 23.574219 42.71875 L 23.667969 42.691406 C 34.289062 42.078125 42.75 33.269531 42.75 22.5 C 42.75 11.332031 33.667969 2.25 22.5 2.25 Z M 34.535156 36.605469 C 34.457031 36.347656 34.277344 36.128906 34.015625 36.042969 L 29.574219 34.566406 C 28.023438 33.917969 27.300781 31.4375 27.132812 30.441406 C 28.28125 29.375 29.34375 27.78125 29.34375 26.34375 C 29.34375 25.855469 29.484375 25.667969 29.457031 25.664062 C 29.71875 25.597656 29.933594 25.410156 30.035156 25.15625 C 30.117188 24.949219 30.84375 23.09375 30.84375 21.84375 C 30.84375 21.777344 30.835938 21.707031 30.820312 21.640625 C 30.714844 21.21875 30.464844 20.789062 30.09375 20.523438 L 30.09375 16.59375 C 30.09375 14.167969 29.355469 13.148438 28.570312 12.5625 C 28.394531 11.351562 27.101562 9 22.5 9 C 17.796875 9 14.90625 13.425781 14.90625 16.59375 L 14.90625 20.523438 C 14.535156 20.789062 14.285156 21.21875 14.179688 21.640625 C 14.164062 21.707031 14.15625 21.777344 14.15625 21.84375 C 14.15625 23.09375 14.882812 24.949219 14.964844 25.15625 C 15.066406 25.410156 15.199219 25.570312 15.464844 25.636719 C 15.515625 25.667969 15.65625 25.855469 15.65625 26.34375 C 15.65625 27.78125 16.71875 29.375 17.867188 30.441406 C 17.699219 31.433594 16.984375 33.914062 15.480469 34.542969 L 10.980469 36.042969 C 10.722656 36.128906 10.539062 36.34375 10.457031 36.601562 C 6.472656 33.195312 3.933594 28.140625 3.933594 22.5 C 3.933594 12.265625 12.261719 3.9375 22.496094 3.9375 C 32.730469 3.9375 41.058594 12.265625 41.058594 22.5 C 41.0625 28.144531 38.523438 33.199219 34.535156 36.605469 Z M 34.535156 36.605469 " fill-opacity="1" fill-rule="nonzero"/></g></svg>